<svg preserveAspectRatio="none" width="100%" height="100%" overflow="visible" style="display: block;" viewBox="0 0 181.479 181.479" fill="none" xmlns="http://www.w3.org/2000/svg">
<path id="Vector" d="M23.0729 107.656H175.323M31.5313 175.323L39.3975 167.457C43.8804 162.974 46.1134 160.741 48.93 159.472C51.7467 158.203 54.9016 158 61.2115 157.611L88.7265 155.886C102.243 155.04 109.01 154.617 114.956 151.766C120.902 148.908 125.461 143.9 134.579 133.869L158.406 107.656H128.802L113.636 122.822C112.621 123.837 112.122 124.336 111.606 124.776C108.907 127.072 105.555 128.463 102.023 128.751C101.338 128.802 100.627 128.802 99.1979 128.802M99.1979 128.802C99.1979 124.869 99.1979 122.907 98.8765 121.274C98.2243 117.991 96.6128 114.975 94.2459 112.608C91.879 110.241 88.8632 108.63 85.58 107.978C83.9476 107.656 81.9852 107.656 78.0521 107.656H71.4377C62.5987 107.656 58.175 107.656 54.0389 108.722C50.9528 109.515 47.9942 110.739 45.2507 112.359C41.5628 114.541 38.4417 117.662 32.191 123.913L6.15625 149.948M99.1979 128.802H69.5938M31.5313 86.5104C31.5313 68.5641 38.6604 51.3528 51.3504 38.6629C64.0403 25.9729 81.2516 18.8438 99.1979 18.8438M99.1979 18.8438C117.144 18.8438 134.356 25.9729 147.045 38.6629C159.735 51.3528 166.865 68.5641 166.865 86.5104M99.1979 18.8438V6.15625" stroke="var(--stroke-0, #3F44C4)" stroke-opacity="0.4" stroke-width="12.3125" stroke-linecap="round" stroke-linejoin="round"/>
</svg>
